# xmcd
#
# Track frame offsets: 
#        175
#        9207
#        19782
#        32647
#        44175
#        51745
#        62362
#        73437
#        83167
#        92862
#        103650
#        115422
#        128115
#        140827
#        150080
#        159947
#        169582
#        177652
#        189487
#        198550
#        209117
#        218635
#        232982
#        245045
#        255985
#        265792
#        274957
#        283435
#        293265
#        303122
#
# Disc length: 4187 seconds
#
# Revision: 0
# Processed by: cddbd v1.5.1PL0 Copyright (c) Steve Scherf et al.
# Submitted via: ExactAudioCopy v0.95a4
#
DISCID=bf10591e
DTITLE=Various Artist - Dixie Boppin' Country Billies (4444)
DYEAR=1900
DGENRE=Country
TTITLE0=The Dixie Harmonaires - Hi Ho Silver
TTITLE1=Unknown Demo - I Walk The Line
TTITLE2=Arvil Meers - The Way You Want It
TTITLE3=Lyle Keefer - Hand Full Of Love
TTITLE4=J. P. Dunn - Long Time Ago
TTITLE5=J. P. Dunn - Kentucky Fandango (Instr.)
TTITLE6=Connie Dycus -  Lying All The Time
TTITLE7=Connie Dycus - I Could Shoot Myself (If I Wasn't Afraid Of A G
TTITLE7=un)
TTITLE8=Dottie Swan - Blue News
TTITLE9=Renaud Veluzat - Purty Lit'l
TTITLE10=Bill and Paul and Bluegrass Travelers - Change Of Heart
TTITLE11=Bill and Paul and Bluegrass Travelers - Cumberland Valley Special
TTITLE11=(Instr.)
TTITLE12=Davis Brothers - More In The Man
TTITLE13=Charlotte Harden and Ozark Sweethearts - Alone With You
TTITLE14=Dee Johnson - You're Number One
TTITLE15=Johnny Clayton - Never Again
TTITLE16=Jim Ridings and Alabama Buddies - My Baby Don't Want Me No More
TTITLE17=Eddie Reynolds - Wrangler (Instr.)
TTITLE18=Jim Ridings and Alabama Buddies - You're Gonna Pay
TTITLE19=Jimmy Pearson and Jerry Hutchinson and The Melody Boys - Nobody C
TTITLE19=ares
TTITLE20=Malcolm Nash and Putman County Play Boys - I Guess I'm Wise
TTITLE21=Bill Willis and Goldie Norris - Going Down To Sal's House
TTITLE22=Bill Goodwin and Westers Ramblers - Your Lying Ways
TTITLE23=Williams Brothers - I've Got A Bead On You Baby
TTITLE24=The Half Brothers - This Little Girl Of Mine
TTITLE25=Sleepy La Beef - You're So Easy To Love
TTITLE26=Jimmy Blakley - Holiday For Love
TTITLE27=Mel Price - Until
TTITLE28=Tommy Nelson - Like Let's Get Out
TTITLE29=Jack Hanna - Old Blue
EXTD=
EXTT0=
EXTT1=
EXTT2=
EXTT3=
EXTT4=
EXTT5=
EXTT6=
EXTT7=
EXTT8=
EXTT9=
EXTT10=
EXTT11=
EXTT12=
EXTT13=
EXTT14=
EXTT15=
EXTT16=
EXTT17=
EXTT18=
EXTT19=
EXTT20=
EXTT21=
EXTT22=
EXTT23=
EXTT24=
EXTT25=
EXTT26=
EXTT27=
EXTT28=
EXTT29=
PLAYORDER=
